<svg xmlns="http://www.w3.org/2000/svg" viewBox="0 0 48 48"><path d="M25 3c5 10-2 13 3 16l7-7c0 8 8 13 6 22-2 8-9 11-17 11S9 40 8 33c-1-9 8-14 8-21l6 5Z" fill="#100b08" stroke="#100b08" stroke-width="3"/>
      <path d="M25 7c2 9-3 14 4 17l5-6c-1 6 5 10 4 16-2 6-7 8-13 8s-13-4-13-10 6-10 6-14l3 5Z" fill="#d78437"/>
      <path d="M23 22c-1 7-6 7-6 13 0 5 6 7 10 6s8-5 6-10l-5 4Z" fill="#f4c875"/>
      <path d="m25 30-4 7 3 4 5-2Z" fill="#fff1bc"/>
      <path d="m7 42 34 2M11 46l25-7" stroke="#785438" stroke-width="2.5"/></svg>
