<svg xmlns="http://www.w3.org/2000/svg" viewBox="0 0 128 128" width="128" height="128"><title>Compact view</title>
<g id="four-inward-arrow-shadows"><path fill="#11120f" d="M22.5 13.1 23.8 13.7 25.1 15.8 33.3 23.9 34.5 26.3 43.2 33.8 48.9 31 50.4 29.4 52.5 30.3 53.2 36 54.1 40.1 54.4 48.8 56.5 57.5 55.9 58.4 46.9 57.7 38.5 55.4 27.5 52.4 27.6 50.8 29.8 46.1 31.3 44.5 23.7 37.2 13.2 27.7 12.1 23.1 17.2 16.9Z" /><path fill="#11120f" d="M103.1 12.8 106.8 16.7 112.9 22.5 112.7 25.7 108.1 30.4 94.1 44.2 95.1 45.6 97.9 52.3 84.8 56.3 77.4 57.8 69.9 58.5 68.9 57.9 71.3 42.3 73.2 29.5 73.7 29.3 78.7 32 81.7 34.5 86.1 30.3 92.1 23.8 96.5 19.7 100.7 15.3 100.9 13.5Z" /><path fill="#11120f" d="M28.1 73.1 35.9 70.9 40.8 70.4 44.6 69.1 54.4 67.3 55.8 67.1 56.4 68.4 56.1 70.7 54.7 77.2 53.9 80.9 52.6 83.5 51.7 93.7 50.5 96.3 45.4 94.1 43 92.4 35.4 99.4 25.2 109.6 23.3 112.3 20.7 111.2 13.1 102.6 12.2 100.2 19.3 94 32.1 80.8Z" /><path fill="#11120f" d="M69.5 67.1 76.5 68.1 83.9 69.5 91.5 71.1 97.6 73.4 96.3 77.7 93.4 80.9 97.5 85.4 102.7 88.5 113.3 99.2 112.6 102 104.2 111 102.1 112 100.3 109.9 90.2 99.7 84.2 95.5 82 92.6 79.5 94.5 74 96 73.1 90.4 72.8 83.4 71.6 79.8 68.8 69Z" /></g>
<g id="four-brass-sides"><path fill="#b48f4a" d="M22.4 17.4 42.4 37.4 50.3 33.1 50.2 38.2 51.1 40.5 51.5 47.9 52.8 54.7 46.6 52.8 43.5 51.1 37.4 51.3 31.1 50.2 36.5 43.6 33.4 41.6 31 38.8 29.6 36.5 25.9 33.2 16.6 23.8Z" /><path fill="#b48f4a" d="M103.3 17.4 108.7 24.6 95.8 36.9 89.8 44.1 93.7 50.1 84.9 51.7 78.9 52.8 71.8 55.3 73.7 45.7 75.4 39 75 37.4 75.1 33.2 82 38 87.3 32.5 90.4 30.4 94.9 25.7Z" /><path fill="#b48f4a" d="M31.5 74.2 43.2 72.5 54.1 69.7 53.1 73.9 51.1 77.4 51.2 81.9 50.1 84.6 49.4 92.4 42.5 88.1 38.6 91.8 35 94.5 28.9 101.7 22.2 107.8 16 100.6 22.2 94.6 26.7 90.9 36.1 80.9Z" /><path fill="#b48f4a" d="M71.5 69.7 83.1 72.9 85.4 72.6 93.7 74.2 88.8 80.6 97.9 89.8 99.2 90.5 108.8 100.2 102.1 107.6 97.8 103.4 96 100.8 89.5 93.4 87.4 92.4 82.8 88.1 76 92.2 75.9 83.8 74.7 81.5 74 77.2Z" /></g>
<g id="separate-bone-arrow-faces"><path fill="#dfd0af" d="M22.4 17.4 42.4 37.4 50.3 33.1 50.2 38.2 51.1 40.5 51.5 47.9 52.8 54.7 48.5 51.2 42.2 46.2 36.2 46.7 38.6 42.3 37.5 40.9 30.5 33.8 25.2 28.9 22.3 25.8 20 22 19.1 20.7Z" /><path fill="#dfd0af" d="M103.3 17.4 106.6 21.8 104.7 24.9 99.7 29.5 94.5 36 91.1 38.6 86.1 41.4 90.9 47.8 85.4 49.2 71.8 55.3 73.7 45.7 75.4 39 75 37.4 75.1 33.2 82 38 87.3 32.5 90.4 30.4 94.9 25.7Z" /><path fill="#dfd0af" d="M31.5 74.2 43.2 72.5 54.1 69.7 51.9 73.6 45.6 82.1 48 90.2 40.9 85.7 34 92.3 32.9 94.1 26.9 98.4 22 104.2 16.4 100 22.2 94.6 26.7 90.9 36.1 80.9 37.5 79.2 37.2 78.1Z" /><path fill="#dfd0af" d="M71.5 69.7 83.1 72.9 85.4 72.6 93.7 74.2 88.8 80.6 97.9 89.8 99.2 90.5 108.8 100.2 103 104.9 96.1 96.8 91.1 91.8 86.9 88.5 83.9 85.3 80 87.3 81.3 82.9 77.2 78.1Z" /></g>
</svg>
