<svg xmlns="http://www.w3.org/2000/svg" viewBox="0 0 128 128" width="128" height="128">
<title>Next</title>
<g id="iron-chevron"><path fill="#11120f" d="M43.2 11.6 49.7 16.5 52.5 17.6 69.1 33.2 91.8 53.2 92.8 55.8 96.2 58.4 96 68.1 80.4 81.3 75.2 86.5 65.4 94.1 60.5 97.7 43.1 112 32.1 100.2 31.5 93.7 42.8 83.4 43.4 81.7 56.1 70.9 64.1 62.9 49.9 48.1 30.9 31.5 30.1 24.7 33.4 21.1 34.6 18Z" /></g>
<g id="muted-brass-edge"><path fill="#98763e" d="M31.9 25.7 41.8 16.1 43 16 50.3 21.5 69.5 38 71.4 41.4 90.8 58.3 92 60 94.1 65 87.3 70.5 81.5 75.3 77.6 79.3 63.9 89.7 47.7 101.7 43 106.3 42.2 106.1 35 98.6 34.2 94.9 58.2 73.2 58.3 71.4 70.6 62.5 54.1 46.2 45.1 38.4 32.5 28Z" /></g>
<g id="bone-chevron-face"><path fill="#dfd0af" d="M31.9 25.7 41.8 16.1 43 16 50.3 21.5 69.5 38 71.4 41.4 90.8 58.3 91.5 63.6 81.7 71.5 63.9 89.7 54.7 97.1 43.6 105.1 40.7 100.5 39.1 97.8 38.4 97 34.2 94.9 46.8 82.8 58.2 74.7 58.3 73.2 70.6 62.5 54.1 46.2 45.1 38.4 37 28.3Z" /></g>
</svg>
